<svg data-name="icon" xmlns="http://www.w3.org/2000/svg" width="16" height="16" style=""><rect id="backgroundrect" width="100%" height="100%" x="0" y="0" fill="none" stroke="none"/><g class="currentLayer" style=""><title>Layer 1</title><path fill="#ffffff" fill-opacity="1" d="M15 12H4a2 2 0 0 1-2-2V3a1 1 0 0 0-2 0v7a4 4 0 0 0 4 4h11a1 1 0 0 0 0-2z" id="svg_1" class=""/><path fill="#ffffff" fill-opacity="1" d="M4 11a1 1 0 0 0 1-1V8a1 1 0 0 0-2 0v2a1 1 0 0 0 1 1zM7 11a1 1 0 0 0 1-1V4a1 1 0 0 0-2 0v6a1 1 0 0 0 1 1zM10 11a1 1 0 0 0 1-1V6a1 1 0 0 0-2 0v4a1 1 0 0 0 1 1zM13 11a1 1 0 0 0 1-1V7a1 1 0 0 0-2 0v3a1 1 0 0 0 1 1z" id="svg_2" class=""/></g></svg>